<svg width="24" height="24" viewBox="0 0 24 24" fill="none" xmlns="http://www.w3.org/2000/svg">
  <path d="M12 4.5C9.52 4.5 7.5 6.52 7.5 9V11.24C7.5 12.05 7.2 13.23 6.84 13.92L5.56 16.05C5.03 16.93 5.4 17.9 6.38 18.23C9.63 19.31 14.37 19.31 17.62 18.23C18.54 17.93 18.94 16.87 18.44 16.05L17.16 13.92C16.8 13.23 16.5 12.05 16.5 11.24V9C16.5 6.52 14.48 4.5 12 4.5Z" stroke="#FFFFFF" stroke-width="1.8" stroke-linecap="round" stroke-linejoin="round"/>
  <path d="M13.39 4.71C13.16 4.64 12.92 4.59 12.67 4.56C11.94 4.47 11.24 4.52 10.61 4.71C10.82 4.16 11.36 3.78 12 3.78C12.64 3.78 13.18 4.16 13.39 4.71Z" stroke="#FFFFFF" stroke-width="1.8" stroke-linecap="round" stroke-linejoin="round"/>
  <path d="M14.25 18.63C14.25 19.87 13.24 20.88 12 20.88C11.39 20.88 10.83 20.63 10.42 20.22C10 19.8 9.75 19.24 9.75 18.63" stroke="#FFFFFF" stroke-width="1.8" stroke-linecap="round" stroke-linejoin="round"/>
</svg>
